<?xml version="1.0" encoding="UTF-8" standalone="no"?>
<!-- Created with Inkscape (http://www.inkscape.org/) -->

<svg
   xmlns:dc="http://purl.org/dc/elements/1.1/"
   xmlns:cc="http://creativecommons.org/ns#"
   xmlns:rdf="http://www.w3.org/1999/02/22-rdf-syntax-ns#"
   xmlns:svg="http://www.w3.org/2000/svg"
   xmlns="http://www.w3.org/2000/svg"
   version="1.1"
   width="22"
   height="22"
   id="svg3883">
  <defs
     id="defs3885" />
  <metadata
     id="metadata3888">
    <rdf:RDF>
      <cc:Work
         rdf:about="">
        <dc:format>image/svg+xml</dc:format>
        <dc:type
           rdf:resource="http://purl.org/dc/dcmitype/StillImage" />
        <dc:title></dc:title>
      </cc:Work>
    </rdf:RDF>
  </metadata>
  <g
     transform="translate(0,-26)"
     id="layer1">
    <path
       d="M 10.91791,44.854 1.85,35.815573 c 0,0 2.8977535,-3.294409 9.131958,-3.294409 6.203557,0 9.168042,3.3 9.168042,3.3 z"
       id="path3683-6-6"
       style="opacity:0.3;fill:none;stroke:#000000;stroke-width:1;stroke-linecap:round;stroke-linejoin:round;stroke-miterlimit:4;stroke-opacity:1;stroke-dasharray:none;stroke-dashoffset:0;marker:none;visibility:visible;display:inline;overflow:visible;enable-background:accumulate" />
    <path
       d="M 10.91791,43.854478 1.85,34.816051 c 0,0 2.8977535,-3.294409 9.131958,-3.294409 6.203557,0 9.168042,3.3 9.168042,3.3 z"
       id="path3683-6"
       style="fill:none;stroke:#df382c;stroke-width:1;stroke-linecap:round;stroke-linejoin:round;stroke-miterlimit:4;stroke-opacity:1;stroke-dasharray:none;stroke-dashoffset:0;marker:none;visibility:visible;display:inline;overflow:visible;enable-background:accumulate" />
    <path
       d="m 10.96875,6.28125 c -2.9839462,0 -5.1261975,0.795122 -6.53125,1.5625 C 3.4355757,8.390957 3.2616143,8.6543666 3,8.90625 l 7.90625,7.875 L 19,8.875 C 18.727116,8.619834 18.54237,8.3889173 17.53125,7.84375 16.104643,7.0745639 13.936715,6.28125 10.96875,6.28125 z"
       transform="translate(0,26)"
       id="path3868"
       style="opacity:0.3;fill:none;stroke:#df382c;stroke-width:0.5;stroke-linecap:round;stroke-linejoin:round;stroke-miterlimit:4;stroke-opacity:1;stroke-dasharray:none;stroke-dashoffset:0;marker:none;visibility:visible;display:inline;overflow:visible;enable-background:accumulate" />
  </g>
</svg>
