<?xml version="1.0" encoding="UTF-8"?>
<!-- Created with Inkscape (http://www.inkscape.org/) -->
<svg id="svg3229" width="22" height="22" version="1.0" xmlns="http://www.w3.org/2000/svg" xmlns:cc="http://creativecommons.org/ns#" xmlns:dc="http://purl.org/dc/elements/1.1/" xmlns:rdf="http://www.w3.org/1999/02/22-rdf-syntax-ns#">
 <metadata id="metadata9">
  <rdf:RDF>
   <cc:Work rdf:about="">
    <dc:format>image/svg+xml</dc:format>
    <dc:type rdf:resource="http://purl.org/dc/dcmitype/StillImage"/>
    <dc:title/>
   </cc:Work>
  </rdf:RDF>
 </metadata>
 <path id="path3683-5" d="m1.85 10.144s2.8978-3.2944 9.132-3.2944c6.2036 0 9.168 3.3 9.168 3.3" style="fill:none;opacity:.3;stroke-linecap:round;stroke-width:1.7;stroke:#000"/>
 <path id="path3683" d="m1.85 9.1444s2.8978-3.2944 9.132-3.2944c6.2036 0 9.168 3.3 9.168 3.3" style="fill:none;stroke-linecap:round;stroke-width:1.7;stroke:#dfdbd2"/>
 <path id="path3681-0" d="m4.35 12.753s2.1469-2.2158 6.65-2.1369c4.5405 0.07949 6.65 2.1725 6.65 2.1725" style="fill:none;opacity:.3;stroke-linecap:round;stroke-width:1.7;stroke:#000"/>
 <path id="path3681" d="m4.35 11.753s2.1469-2.2158 6.65-2.1369c4.5405 0.07949 6.65 2.1725 6.65 2.1725" style="fill:none;stroke-linecap:round;stroke-width:1.7;stroke:#dfdbd2"/>
 <path id="path3209-5" d="m7.35 15.191s0.9669-1.072 3.5987-1.0922c2.599-0.01997 3.7013 1.0922 3.7013 1.0922" style="fill:none;opacity:.3;stroke-linecap:round;stroke-width:1.7;stroke:#000"/>
 <path id="path3209" d="m7.35 14.191s0.9669-1.072 3.5987-1.0922c2.599-0.01997 3.7013 1.0922 3.7013 1.0922" style="fill:none;stroke-linecap:round;stroke-width:1.7;stroke:#dfdbd2"/>
 <path id="path3196-5-7" d="m10.145 17c-0.4719 0-0.8549 0.29867-0.8549 0.66667 0 0.13676 0.0529 0.26394 0.14359 0.36978l1.0076 0.80144c0.14986 0.101 0.34514 0.16212 0.5586 0.16212 0.2533 0 0.48099-0.08605 0.63758-0.22269l0.90091-0.7104c0.10754-0.11149 0.1713-0.25009 0.1713-0.40024 0-0.368-0.38299-0.66667-0.8549-0.66667h-1.7098z" style="fill-rule:evenodd;opacity:.3"/>
 <path id="path3196-5" d="m10.145 16c-0.4719 0-0.8549 0.29867-0.8549 0.66667 0 0.13676 0.0529 0.26394 0.14359 0.36978l1.0076 0.80144c0.14986 0.101 0.34514 0.16212 0.5586 0.16212 0.2533 0 0.48099-0.08605 0.63758-0.22269l0.90091-0.7104c0.10754-0.11149 0.1713-0.25009 0.1713-0.40024 0-0.368-0.38299-0.66667-0.8549-0.66667h-1.7098z" style="fill-rule:evenodd;fill:#dfdbd2"/>
 <!-- imported from 'ubuntu-mono-dark/status/22/nm-vpn-lock.svg' -->
 <g id="svg3215">
  <metadata id="metadata12">
   <rdf:RDF>
    <cc:Work rdf:about="">
     <dc:format>image/svg+xml</dc:format>
     <dc:type rdf:resource="http://purl.org/dc/dcmitype/StillImage"/>
     <dc:title/>
    </cc:Work>
   </rdf:RDF>
  </metadata>
  <path id="path2441" d="m19 14c-1.108 0-2 0.91076-2 2.0312v0.96875c-0.554 0-1 0.446-1 1v3c0 0.554 0.446 1 1 1h4c0.554 0 1-0.446 1-1v-3c0-0.554-0.446-1-1-1v-0.96875c0-1.1205-0.892-2.0312-2-2.0312zm0 1c0.554 0 1 0.44236 1 1v1h-2v-1c0-0.55764 0.446-1 1-1z" style="opacity:.3"/>
  <path id="rect2822" d="m19 13c-1.108 0-2 0.91076-2 2.0312v0.96875c-0.554 0-1 0.446-1 1v3c0 0.554 0.446 1 1 1h4c0.554 0 1-0.446 1-1v-3c0-0.554-0.446-1-1-1v-0.96875c0-1.1205-0.892-2.0312-2-2.0312zm0 1c0.554 0 1 0.44236 1 1v1h-2v-1c0-0.55764 0.446-1 1-1z" style="fill:#dfdbd2"/>
 </g>
</svg>
